<svg xmlns="http://www.w3.org/2000/svg" viewBox="0 0 680 250">
<style>text{font-family:'JetBrains Mono',ui-monospace,SFMono-Regular,'DejaVu Sans Mono',Menlo,Consolas,monospace}</style>
<defs><filter id="g1" x="-40%" y="-40%" width="180%" height="180%"><feGaussianBlur stdDeviation="2.4" result="b"/><feMerge><feMergeNode in="b"/><feMergeNode in="SourceGraphic"/></feMerge></filter></defs>
<line x1="24" y1="142" x2="656" y2="142" stroke="#2D3D52" stroke-width="1.5"/>
<polygon points="112,137 120,142 112,147" fill="#3D5170"/>
<polygon points="224,137 232,142 224,147" fill="#3D5170"/>
<polygon points="336,137 344,142 336,147" fill="#3D5170"/>
<polygon points="448,137 456,142 448,147" fill="#3D5170"/>
<polygon points="560,137 568,142 560,147" fill="#3D5170"/>
<rect x="18.0" y="50" width="84" height="56" rx="5" fill="#141E2C" stroke="#F5A524" stroke-width="1.5"/>
<circle cx="27.0" cy="58" r="2.3" fill="#3D5170"/><circle cx="35.0" cy="58" r="2.3" fill="#3D5170"/>
<line x1="18.0" y1="66" x2="102.0" y2="66" stroke="#F5A524" stroke-width="1" opacity=".5"/>
<rect x="28.0" y="75" width="60" height="3.5" rx="1.75" fill="#3D5170"/>
<rect x="28.0" y="84" width="46" height="3.5" rx="1.75" fill="#3D5170"/>
<rect x="28.0" y="93" width="54" height="3.5" rx="1.75" fill="#3D5170"/>
<rect x="12.0" y="13" width="96" height="22" rx="11" fill="#0A1220" stroke="#F5A524" stroke-width="1.3"/>
<text x="60" y="27.6" fill="#F5A524" font-family="JetBrains Mono" font-size="9" text-anchor="middle">inthelab.ie</text>
<rect x="136" y="58" width="72" height="44" rx="7" fill="#141E2C" stroke="#8B7BF0" stroke-width="1.7"/>
<text x="172" y="85" fill="#8B7BF0" font-family="JetBrains Mono" font-size="13" text-anchor="middle">DNS</text>
<rect x="246" y="50" width="76" height="60" rx="7" fill="none" stroke="#F5A524" stroke-width="1.3" stroke-dasharray="4 4"/>
<circle cx="262" cy="68" r="4" fill="#F5A524" opacity=".75"/>
<circle cx="284" cy="68" r="4" fill="#F5A524" opacity=".75"/>
<circle cx="306" cy="68" r="4" fill="#F5A524" opacity=".75"/>
<circle cx="262" cy="92" r="4" fill="#F5A524" opacity=".75"/>
<circle cx="284" cy="92" r="4" fill="#F5A524" opacity=".75"/>
<circle cx="306" cy="92" r="5" fill="#F5A524" filter="url(#g1)"/>
<line x1="376.0" y1="69.0" x2="366.0" y2="45.0" stroke="#8B7BF0" stroke-width="1.6"/>
<circle cx="366.0" cy="45.0" r="2.6" fill="#8B7BF0"/>
<line x1="416.0" y1="69.0" x2="426.0" y2="45.0" stroke="#8B7BF0" stroke-width="1.6"/>
<circle cx="426.0" cy="45.0" r="2.6" fill="#8B7BF0"/>
<g filter="url(#g1)"><rect x="356.0" y="69.0" width="80" height="34" rx="7" fill="#141E2C" stroke="#8B7BF0" stroke-width="1.9"/></g>
<circle cx="369.0" cy="79.0" r="3" fill="#34D399"/>
<text x="396" y="90.5" fill="#8B7BF0" font-family="JetBrains Mono" font-size="11" text-anchor="middle">router</text>
<rect x="501" y="48" width="14" height="68" rx="3" fill="#141E2C" stroke="#34D399" stroke-width="1.6"/>
<line x1="501" y1="60" x2="515" y2="60" stroke="#34D399" stroke-width="1" opacity=".45"/>
<line x1="501" y1="76" x2="515" y2="76" stroke="#34D399" stroke-width="1" opacity=".45"/>
<line x1="501" y1="92" x2="515" y2="92" stroke="#34D399" stroke-width="1" opacity=".45"/>
<line x1="501" y1="108" x2="515" y2="108" stroke="#34D399" stroke-width="1" opacity=".45"/>
<circle cx="530" cy="82" r="8" fill="#0C1220" stroke="#34D399" stroke-width="1.7"/>
<path d="M525.8 82.3 L528.8 85.4 L534.4 78.6" fill="none" stroke="#34D399" stroke-width="1.8" stroke-linecap="round" stroke-linejoin="round"/>
<rect x="598" y="32" width="44" height="15" rx="3" fill="#0A1220" stroke="#22C7B8" stroke-width="1.2"/>
<text x="620" y="43" fill="#22C7B8" font-family="JetBrains Mono" font-size="9.5" text-anchor="middle">443</text>
<rect x="592" y="52" width="56" height="66" rx="4" fill="#141E2C" stroke="#22C7B8" stroke-width="1.7"/>
<rect x="598" y="58" width="44" height="16" rx="2" fill="#0A1220" stroke="#2D3D52" stroke-width="1"/>
<circle cx="605" cy="66" r="2.2" fill="#34D399"/>
<circle cx="612" cy="66" r="2.2" fill="#3D5170"/>
<line x1="624.0" y1="62" x2="624.0" y2="70" stroke="#3D5170" stroke-width="1.2"/>
<line x1="628.5" y1="62" x2="628.5" y2="70" stroke="#3D5170" stroke-width="1.2"/>
<line x1="633.0" y1="62" x2="633.0" y2="70" stroke="#3D5170" stroke-width="1.2"/>
<line x1="637.5" y1="62" x2="637.5" y2="70" stroke="#3D5170" stroke-width="1.2"/>
<rect x="598" y="77" width="44" height="16" rx="2" fill="#0A1220" stroke="#2D3D52" stroke-width="1"/>
<circle cx="605" cy="85" r="2.2" fill="#22C7B8"/>
<circle cx="612" cy="85" r="2.2" fill="#3D5170"/>
<line x1="624.0" y1="81" x2="624.0" y2="89" stroke="#3D5170" stroke-width="1.2"/>
<line x1="628.5" y1="81" x2="628.5" y2="89" stroke="#3D5170" stroke-width="1.2"/>
<line x1="633.0" y1="81" x2="633.0" y2="89" stroke="#3D5170" stroke-width="1.2"/>
<line x1="637.5" y1="81" x2="637.5" y2="89" stroke="#3D5170" stroke-width="1.2"/>
<rect x="598" y="96" width="44" height="16" rx="2" fill="#0A1220" stroke="#2D3D52" stroke-width="1"/>
<circle cx="605" cy="104" r="2.2" fill="#22C7B8"/>
<circle cx="612" cy="104" r="2.2" fill="#3D5170"/>
<line x1="624.0" y1="100" x2="624.0" y2="108" stroke="#3D5170" stroke-width="1.2"/>
<line x1="628.5" y1="100" x2="628.5" y2="108" stroke="#3D5170" stroke-width="1.2"/>
<line x1="633.0" y1="100" x2="633.0" y2="108" stroke="#3D5170" stroke-width="1.2"/>
<line x1="637.5" y1="100" x2="637.5" y2="108" stroke="#3D5170" stroke-width="1.2"/>
<circle cx="60" cy="142" r="13" fill="#0C1220" stroke="#F5A524" stroke-width="1.6"/>
<text x="60" y="146" fill="#F5A524" font-family="JetBrains Mono" font-size="11" text-anchor="middle">1</text>
<text x="60" y="178" fill="#F5A524" font-family="JetBrains Mono" font-size="11" text-anchor="middle">you</text>
<text x="60" y="194" fill="#8FA0BD" font-family="JetBrains Mono" font-size="9.5" text-anchor="middle">type a name</text>
<text x="60" y="208" fill="#5B7290" font-family="JetBrains Mono" font-size="9" text-anchor="middle">in a browser</text>
<circle cx="172" cy="142" r="13" fill="#0C1220" stroke="#8B7BF0" stroke-width="1.6"/>
<text x="172" y="146" fill="#8B7BF0" font-family="JetBrains Mono" font-size="11" text-anchor="middle">2</text>
<text x="172" y="178" fill="#8B7BF0" font-family="JetBrains Mono" font-size="11" text-anchor="middle">DNS</text>
<text x="172" y="194" fill="#8FA0BD" font-family="JetBrains Mono" font-size="9.5" text-anchor="middle">find the address</text>
<text x="172" y="208" fill="#5B7290" font-family="JetBrains Mono" font-size="9" text-anchor="middle">203.0.113.10</text>
<circle cx="284" cy="142" r="13" fill="#0C1220" stroke="#F5A524" stroke-width="1.6"/>
<text x="284" y="146" fill="#F5A524" font-family="JetBrains Mono" font-size="11" text-anchor="middle">3</text>
<text x="284" y="178" fill="#F5A524" font-family="JetBrains Mono" font-size="11" text-anchor="middle">CIDR</text>
<text x="284" y="194" fill="#8FA0BD" font-family="JetBrains Mono" font-size="9.5" text-anchor="middle">which network?</text>
<text x="284" y="208" fill="#5B7290" font-family="JetBrains Mono" font-size="9" text-anchor="middle">203.0.113.0/24</text>
<circle cx="396" cy="142" r="13" fill="#0C1220" stroke="#8B7BF0" stroke-width="1.6"/>
<text x="396" y="146" fill="#8B7BF0" font-family="JetBrains Mono" font-size="11" text-anchor="middle">4</text>
<text x="396" y="178" fill="#8B7BF0" font-family="JetBrains Mono" font-size="11" text-anchor="middle">route</text>
<text x="396" y="194" fill="#8FA0BD" font-family="JetBrains Mono" font-size="9.5" text-anchor="middle">choose next hop</text>
<text x="396" y="208" fill="#5B7290" font-family="JetBrains Mono" font-size="9" text-anchor="middle">via routers</text>
<circle cx="508" cy="142" r="13" fill="#0C1220" stroke="#34D399" stroke-width="1.6"/>
<text x="508" y="146" fill="#34D399" font-family="JetBrains Mono" font-size="11" text-anchor="middle">5</text>
<text x="508" y="178" fill="#34D399" font-family="JetBrains Mono" font-size="11" text-anchor="middle">firewall</text>
<text x="508" y="194" fill="#8FA0BD" font-family="JetBrains Mono" font-size="9.5" text-anchor="middle">allow or block</text>
<text x="508" y="208" fill="#5B7290" font-family="JetBrains Mono" font-size="9" text-anchor="middle">443 allowed</text>
<circle cx="620" cy="142" r="13" fill="#0C1220" stroke="#22C7B8" stroke-width="1.6"/>
<text x="620" y="146" fill="#22C7B8" font-family="JetBrains Mono" font-size="11" text-anchor="middle">6</text>
<text x="620" y="178" fill="#22C7B8" font-family="JetBrains Mono" font-size="11" text-anchor="middle">port</text>
<text x="620" y="194" fill="#8FA0BD" font-family="JetBrains Mono" font-size="9.5" text-anchor="middle">pick the service</text>
<text x="620" y="208" fill="#5B7290" font-family="JetBrains Mono" font-size="9" text-anchor="middle">:443 HTTPS</text>
<text x="340" y="238" fill="#5B7290" font-family="JetBrains Mono" font-size="9.5" text-anchor="middle">if any stop fails, the page never loads</text>
</svg>
