<svg xmlns="http://www.w3.org/2000/svg" viewBox="0 0 620 330">
<style>text{font-family:'JetBrains Mono',ui-monospace,SFMono-Regular,'DejaVu Sans Mono',Menlo,Consolas,monospace}</style>
<defs><filter id="g1" x="-40%" y="-40%" width="180%" height="180%"><feGaussianBlur stdDeviation="2.4" result="b"/><feMerge><feMergeNode in="b"/><feMergeNode in="SourceGraphic"/></feMerge></filter></defs>
<rect x="20" y="28" width="370" height="282" rx="12" fill="none" stroke="#3D5170" stroke-width="1.3" stroke-dasharray="6 6"/>
<text x="36" y="50" fill="#5B7290" font-family="JetBrains Mono" font-size="10" text-anchor="start">your network</text>
<text x="374" y="50" fill="#F5A524" font-family="JetBrains Mono" font-size="10" text-anchor="end">192.168.1.0/24</text>
<rect x="68" y="78" width="64" height="42" rx="3" fill="#141E2C" stroke="#F5A524" stroke-width="1.6"/>
<rect x="73" y="83" width="54" height="32" fill="#0A1220"/>
<path d="M58 120 L142 120 L150 132 L50 132 Z" fill="#182636" stroke="#F5A524" stroke-width="1.6" stroke-linejoin="round"/>
<text x="100" y="152" fill="#8FA0BD" font-family="JetBrains Mono" font-size="10.5" text-anchor="middle">laptop</text>
<text x="100" y="166" fill="#F5A524" font-family="JetBrains Mono" font-size="9.5" text-anchor="middle">192.168.1.10</text>
<rect x="78" y="212" width="44" height="22" rx="1.5" fill="#182636" stroke="#3D5170" stroke-width="1.2"/>
<rect x="62" y="232" width="76" height="44" rx="4" fill="#141E2C" stroke="#4A5F7E" stroke-width="1.6"/>
<rect x="76" y="240" width="48" height="4" rx="2" fill="#0A1220"/>
<circle cx="126" cy="264" r="3" fill="#34D399"/>
<text x="160" y="250" fill="#8FA0BD" font-family="JetBrains Mono" font-size="10.5" text-anchor="start">printer</text>
<text x="160" y="264" fill="#F5A524" font-family="JetBrains Mono" font-size="9.5" text-anchor="start">192.168.1.20</text>
<line x1="100" y1="174" x2="100.0" y2="199.0" stroke="#34D399" stroke-width="1.6"/>
<polygon points="100.0,208.0 95.5,199.0 104.5,199.0" fill="#34D399"/>
<text x="40" y="188" fill="#34D399" font-family="JetBrains Mono" font-size="9.5" text-anchor="start">same</text>
<text x="40" y="200" fill="#34D399" font-family="JetBrains Mono" font-size="9.5" text-anchor="start">network</text>
<line x1="358.0" y1="152.0" x2="348.0" y2="128.0" stroke="#8B7BF0" stroke-width="1.6"/>
<circle cx="348.0" cy="128.0" r="2.6" fill="#8B7BF0"/>
<line x1="422.0" y1="152.0" x2="432.0" y2="128.0" stroke="#8B7BF0" stroke-width="1.6"/>
<circle cx="432.0" cy="128.0" r="2.6" fill="#8B7BF0"/>
<g filter="url(#g1)"><rect x="338.0" y="152.0" width="104" height="40" rx="7" fill="#141E2C" stroke="#8B7BF0" stroke-width="1.9"/></g>
<circle cx="351.0" cy="162.0" r="3" fill="#34D399"/>
<text x="390" y="176.5" fill="#8B7BF0" font-family="JetBrains Mono" font-size="12" text-anchor="middle">router</text>
<text x="390" y="210" fill="#5B7290" font-family="JetBrains Mono" font-size="9.5" text-anchor="middle">192.168.1.1</text>
<text x="390" y="224" fill="#8B7BF0" font-family="JetBrains Mono" font-size="9.5" text-anchor="middle">default gateway</text>
<line x1="156" y1="108" x2="325.4" y2="161.3" stroke="#22C7B8" stroke-width="1.6"/>
<polygon points="334.0,164.0 324.1,165.6 326.8,157.0" fill="#22C7B8"/>
<text x="284" y="104" fill="#22C7B8" font-family="JetBrains Mono" font-size="9.5" text-anchor="middle">different network?</text>
<text x="284" y="116" fill="#5B7290" font-family="JetBrains Mono" font-size="9" text-anchor="middle">send it to the router</text>
<line x1="444" y1="172" x2="497.0" y2="172.0" stroke="#22C7B8" stroke-width="1.6"/>
<polygon points="506.0,172.0 497.0,176.5 497.0,167.5" fill="#22C7B8"/>
<text x="548" y="116" fill="#5B7290" font-family="JetBrains Mono" font-size="9.5" text-anchor="middle">another network</text>
<rect x="520" y="140" width="56" height="66" rx="4" fill="#141E2C" stroke="#22C7B8" stroke-width="1.7"/>
<rect x="526" y="146" width="44" height="16" rx="2" fill="#0A1220" stroke="#2D3D52" stroke-width="1"/>
<circle cx="533" cy="154" r="2.2" fill="#34D399"/>
<circle cx="540" cy="154" r="2.2" fill="#3D5170"/>
<line x1="552.0" y1="150" x2="552.0" y2="158" stroke="#3D5170" stroke-width="1.2"/>
<line x1="556.5" y1="150" x2="556.5" y2="158" stroke="#3D5170" stroke-width="1.2"/>
<line x1="561.0" y1="150" x2="561.0" y2="158" stroke="#3D5170" stroke-width="1.2"/>
<line x1="565.5" y1="150" x2="565.5" y2="158" stroke="#3D5170" stroke-width="1.2"/>
<rect x="526" y="165" width="44" height="16" rx="2" fill="#0A1220" stroke="#2D3D52" stroke-width="1"/>
<circle cx="533" cy="173" r="2.2" fill="#22C7B8"/>
<circle cx="540" cy="173" r="2.2" fill="#3D5170"/>
<line x1="552.0" y1="169" x2="552.0" y2="177" stroke="#3D5170" stroke-width="1.2"/>
<line x1="556.5" y1="169" x2="556.5" y2="177" stroke="#3D5170" stroke-width="1.2"/>
<line x1="561.0" y1="169" x2="561.0" y2="177" stroke="#3D5170" stroke-width="1.2"/>
<line x1="565.5" y1="169" x2="565.5" y2="177" stroke="#3D5170" stroke-width="1.2"/>
<rect x="526" y="184" width="44" height="16" rx="2" fill="#0A1220" stroke="#2D3D52" stroke-width="1"/>
<circle cx="533" cy="192" r="2.2" fill="#22C7B8"/>
<circle cx="540" cy="192" r="2.2" fill="#3D5170"/>
<line x1="552.0" y1="188" x2="552.0" y2="196" stroke="#3D5170" stroke-width="1.2"/>
<line x1="556.5" y1="188" x2="556.5" y2="196" stroke="#3D5170" stroke-width="1.2"/>
<line x1="561.0" y1="188" x2="561.0" y2="196" stroke="#3D5170" stroke-width="1.2"/>
<line x1="565.5" y1="188" x2="565.5" y2="196" stroke="#3D5170" stroke-width="1.2"/>
<text x="548" y="226" fill="#8FA0BD" font-family="JetBrains Mono" font-size="10.5" text-anchor="middle">server</text>
<text x="548" y="240" fill="#22C7B8" font-family="JetBrains Mono" font-size="9.5" text-anchor="middle">8.8.8.8</text>
</svg>
