<svg xmlns="http://www.w3.org/2000/svg" viewBox="0 0 620 300">
<style>text{font-family:'JetBrains Mono',ui-monospace,SFMono-Regular,'DejaVu Sans Mono',Menlo,Consolas,monospace}</style>
<defs><filter id="d1" x="-40%" y="-40%" width="180%" height="180%"><feGaussianBlur stdDeviation="2.4" result="b"/><feMerge><feMergeNode in="b"/><feMergeNode in="SourceGraphic"/></feMerge></filter></defs>
<g filter="url(#d1)"><rect x="20" y="26" width="200" height="64" rx="8" fill="#141E2C" stroke="#8B7BF0" stroke-width="1.9"/></g>
<text x="120" y="63" fill="#8B7BF0" font-family="JetBrains Mono" font-size="14" text-anchor="middle">DNS</text>
<line x1="100" y1="148" x2="100" y2="102" stroke="#F5A524" stroke-width="1.3"/>
<polygon points="95,102 100,92 105,102" fill="#F5A524"/>
<line x1="140" y1="92" x2="140" y2="138" stroke="#22C7B8" stroke-width="1.3"/>
<polygon points="135,138 140,148 145,138" fill="#22C7B8"/>
<text x="172" y="112" fill="#F5A524" font-family="JetBrains Mono" font-size="9.5">1  where is inthelab.ie?</text>
<text x="172" y="134" fill="#22C7B8" font-family="JetBrains Mono" font-size="9.5">2  it is at 93.184.216.34</text>
<rect x="56" y="150" width="128" height="94" rx="6" fill="#141E2C" stroke="#F5A524" stroke-width="1.6"/>
<circle cx="70" cy="161" r="3" fill="#3D5170"/>
<circle cx="82" cy="161" r="3" fill="#3D5170"/>
<circle cx="94" cy="161" r="3" fill="#3D5170"/>
<rect x="108" y="155" width="68" height="12" rx="6" fill="#0A1220" stroke="#2D3D52" stroke-width="1"/>
<text x="142" y="164" fill="#8FA0BD" font-family="JetBrains Mono" font-size="7.5" text-anchor="middle">inthelab.ie</text>
<line x1="56" y1="172" x2="184" y2="172" stroke="#F5A524" stroke-width="1.2" opacity=".5"/>
<rect x="70" y="186" width="100" height="4" rx="2" fill="#3D5170"/>
<rect x="70" y="200" width="76" height="4" rx="2" fill="#3D5170"/>
<rect x="70" y="214" width="90" height="4" rx="2" fill="#3D5170"/>
<text x="120" y="264" fill="#F5A524" font-family="JetBrains Mono" font-size="10.5" text-anchor="middle">your browser</text>
<text x="306" y="188" fill="#22C7B8" font-family="JetBrains Mono" font-size="9.5" text-anchor="middle">3  the page comes from here, not from DNS</text>
<line x1="194" y1="197" x2="418" y2="197" stroke="#22C7B8" stroke-width="2"/>
<polygon points="194,192 184,197 194,202" fill="#22C7B8"/>
<polygon points="418,192 428,197 418,202" fill="#22C7B8"/>
<path d="M430 140 L450 124 L542 124 L522 140 Z" fill="#1B2738" stroke="#22C7B8" stroke-width="1.4" stroke-linejoin="round"/>
<path d="M522 140 L542 124 L542 236 L522 252 Z" fill="#161F2D" stroke="#22C7B8" stroke-width="1.4" stroke-linejoin="round"/>
<rect x="430" y="140" width="92" height="112" rx="3" fill="#141E2C" stroke="#22C7B8" stroke-width="1.7"/>
<rect x="442" y="154" width="68" height="18" rx="2" fill="#0A1220" stroke="#2D3D52"/>
<rect x="442" y="180" width="68" height="18" rx="2" fill="#0A1220" stroke="#2D3D52"/>
<rect x="442" y="206" width="68" height="18" rx="2" fill="#0A1220" stroke="#2D3D52"/>
<circle cx="450" cy="236" r="3" fill="#34D399"/>
<text x="486" y="274" fill="#22C7B8" font-family="JetBrains Mono" font-size="10.5" text-anchor="middle">inthelab.ie</text>
<text x="486" y="290" fill="#5B7290" font-family="JetBrains Mono" font-size="9.5" text-anchor="middle">93.184.216.34</text>
</svg>